<?xml version="1.0" encoding="UTF-8"?>
<svg xmlns="http://www.w3.org/2000/svg" xmlns:xlink="http://www.w3.org/1999/xlink" width="595pt" height="842pt" viewBox="0 0 595 842" version="1.1">
<g id="surface1">
<path style="fill:none;stroke-width:5.669;stroke-linecap:butt;stroke-linejoin:miter;stroke:rgb(8.227539%,8.616638%,8.616638%);stroke-opacity:1;stroke-miterlimit:4;" d="M 0 1.09375 L 5952.773438 1.09375 L 5952.773438 8420 L 0 8420 Z M 0 1.09375 " transform="matrix(0.1,0,0,-0.1,0,842)"/>
<path style="fill-rule:evenodd;fill:rgb(95.3125%,52.539063%,2.745056%);fill-opacity:1;stroke-width:5.669;stroke-linecap:butt;stroke-linejoin:miter;stroke:rgb(8.227539%,8.616638%,8.616638%);stroke-opacity:1;stroke-miterlimit:4;" d="M 3363.632813 5229.804688 C 3363.632813 5229.804688 3260.390625 5119.453125 4228.75 5165.742188 C 5197.109375 5212.03125 4997.734375 5503.945313 4990.625 5539.570313 C 4987.265625 5556.445313 4944.492188 5896.015625 4696.835938 6277.8125 C 4502.890625 6576.796875 4206.640625 6921.914063 3641.679688 7102.03125 C 3398.828125 7179.453125 3086.054688 7233.359375 2744.179688 7201.25 C 2520.234375 7180.195313 2260.820313 7096.367188 2037.03125 6977.695313 C 1872.304688 6890.351563 1729.335938 6778.007813 1621.445313 6689.179688 C 1268.710938 6398.710938 959.609375 5822.1875 941.25 5360.742188 C 924.882813 4949.492188 1191.484375 3711.484375 1558.007813 3487.773438 C 1751.71875 3369.570313 2425.117188 3441.875 2832.34375 3438.046875 C 2877.34375 3437.617188 3145.664063 3452.382813 3154.804688 3404.53125 C 3161.757813 3368.125 3162.695313 3302.34375 3163.632813 3253.90625 C 3166.054688 3128.359375 3170.585938 2957.070313 3161.914063 2804.726563 C 3158.320313 2741.601563 3161.875 2688.359375 3160.703125 2632.695313 C 3156.679688 2440.390625 2961.523438 2494.414063 2949.804688 2595.3125 C 2942.226563 2660.820313 2951.25 2816.71875 2950.585938 2943.398438 C 2950.3125 2993.75 2954.023438 3038.398438 2948.90625 3072.382813 C 2940.703125 3126.601563 2831.445313 3149.570313 2691.640625 3164.921875 C 2465.507813 3189.804688 2075.234375 3173.90625 1876.796875 3106.914063 C 1742.539063 3061.601563 1798.984375 2975.859375 1858.476563 2854.179688 C 1942.1875 2682.929688 2074.6875 2461.054688 2119.53125 2395.976563 C 2479.335938 1873.789063 2986.289063 1210.429688 2986.289063 1210.429688 C 2986.289063 1210.429688 3334.296875 1574.921875 3707.1875 2095.664063 C 4170.039063 2742.070313 4704.609375 3608.28125 4845 4171.796875 C 4890.390625 4354.0625 4921.132813 4623.90625 4873.125 4699.335938 C 4839.648438 4751.953125 4789.296875 4791.171875 4729.335938 4825.15625 C 4558.046875 4922.265625 4242.929688 4912.929688 3955.15625 4920.15625 C 3774.414063 4924.6875 3554.414063 4925.976563 3389.570313 4925.15625 C 3233.007813 4924.375 3139.804688 4930.390625 3140.117188 5051.132813 C 3140.546875 5225.46875 3141.289063 5517.382813 3137.304688 5735.742188 C 3135.039063 5859.921875 3130.585938 5895.546875 3137.773438 5954.492188 C 3147.5 6034.257813 3185.625 6077.773438 3243.476563 6082.5 C 3305.117188 6087.5 3361.015625 6023.59375 3360.078125 5948.945313 C 3356.757813 5681.875 3356.171875 5222.460938 3363.632813 5229.804688 Z M 3363.632813 5229.804688 " transform="matrix(0.1,0,0,-0.1,0,842)"/>
</g>
</svg>
