<?xml version="1.0"?>
<svg xmlns="http://www.w3.org/2000/svg" xmlns:xlink="http://www.w3.org/1999/xlink" xmlns:svgjs="http://svgjs.com/svgjs" version="1.1" width="512" height="512" x="0" y="0" viewBox="0 0 510 510" style="enable-background:new 0 0 512 512" xml:space="preserve" class=""><g><g xmlns="http://www.w3.org/2000/svg" id="XMLID_1473_"><path id="XMLID_1476_" d="m118.832 467.243c1.193 24.006 20.863 42.757 44.944 42.757h182.447c24.081 0 43.753-18.75 44.944-42.757l26.28-302.243h-324.895zm181.168-227.243h30v165h-30zm-60 0h30v165h-30zm-60 0h30v165h-30z" fill="#5228a1e3" data-original="#000000" style="" class=""/><path id="XMLID_1481_" d="m330 75v-30c0-24.812-20.186-45-45-45h-60c-24.812 0-45 20.188-45 45v30h-120v60h390v-60zm-120 0v-30c0-8.271 6.73-15 15-15h60c8.272 0 15 6.729 15 15v30z" fill="#5228a1e3" data-original="#000000" style="" class=""/></g></g></svg>
